<svg xmlns='http://www.w3.org/2000/svg'>
    <svg id='home' viewBox="0 0 45 45" fill='none'>
        <path d="M7 22.002C7 18.8717 7 17.3066 7.60774 15.9308C8.21547 14.5551 9.35681 13.5365 11.6395 11.4993L13.8538 9.52321C17.9797 5.84107 20.0426 4 22.5 4C24.9574 4 27.0203 5.84107 31.1462 9.52321L33.3605 11.4993C35.6432 13.5365 36.7845 14.5551 37.3923 15.9308C38 17.3066 38 18.8717 38 22.002V31.7781C38 36.1253 38 38.299 36.7029 39.6495C35.4058 41 33.3182 41 29.1429 41H15.8571C11.6818 41 9.5942 41 8.2971 39.6495C7 38.299 7 36.1253 7 31.7781V22.002Z" stroke-width="2"/>
        <path d="M28 41V28C28 27.4477 27.5523 27 27 27H18C17.4477 27 17 27.4477 17 28V41" stroke-width="2" stroke-linecap="round" stroke-linejoin="round"/>
    </svg>

    <svg id='friend' viewBox="0 0 45 45" fill="none" stroke="#D7D7D7">
        <path d="M25 17C25 18.7865 23.7595 20 22.5 20C21.2405 20 20 18.7865 20 17C20 15.2135 21.2405 14 22.5 14C23.7595 14 25 15.2135 25 17Z" stroke-width="2" stroke-linecap="round"/>
        <path d="M29.4019 15.5C29.7997 14.8109 30.455 14.3082 31.2235 14.1022C31.9921 13.8963 32.8109 14.0041 33.5 14.4019C34.1891 14.7997 34.6918 15.455 34.8978 16.2235C35.1037 16.9921 34.9959 17.8109 34.5981 18.5C34.2003 19.1891 33.545 19.6918 32.7765 19.8978C32.0079 20.1037 31.1891 19.9959 30.5 19.5981C29.8109 19.2003 29.3082 18.545 29.1022 17.7765C28.8963 17.0079 29.0041 16.1891 29.4019 15.5L29.4019 15.5Z" stroke-width="2"/>
        <path d="M10.4019 15.5C10.7997 14.8109 11.455 14.3082 12.2235 14.1022C12.9921 13.8963 13.8109 14.0041 14.5 14.4019C15.1891 14.7997 15.6918 15.455 15.8978 16.2235C16.1037 16.9921 15.9959 17.8109 15.5981 18.5C15.2003 19.1891 14.545 19.6918 13.7765 19.8978C13.0079 20.1037 12.1891 19.9959 11.5 19.5981C10.8109 19.2003 10.3082 18.545 10.1022 17.7765C9.89629 17.0079 10.0041 16.1891 10.4019 15.5L10.4019 15.5Z" stroke-width="2"/>
        <path d="M38.9655 30.2693L39.9553 30.1268L38.9655 30.2693ZM26.5895 24.8084L26.0082 23.9947L24.9434 24.7554L25.957 25.583L26.5895 24.8084ZM29.2395 30.2683L30.2316 30.1432L29.2395 30.2683ZM38.0526 30.2632H28.3158V32.2632H38.0526V30.2632ZM37.9757 30.4118C37.9736 30.3969 37.9741 30.3724 37.983 30.3451C37.9915 30.3191 38.0045 30.2996 38.0164 30.2869C38.0397 30.2622 38.0572 30.2632 38.0526 30.2632V32.2632C39.1316 32.2632 40.1321 31.3548 39.9553 30.1268L37.9757 30.4118ZM31.2632 24.4737C33.9849 24.4737 35.5439 25.5105 36.4835 26.703C37.4605 27.9429 37.8363 29.4435 37.9757 30.4118L39.9553 30.1268C39.7924 28.9954 39.3411 27.0982 38.0544 25.4652C36.7305 23.7849 34.5894 22.4737 31.2632 22.4737V24.4737ZM27.1708 25.6221C28.0965 24.9608 29.3987 24.4737 31.2632 24.4737V22.4737C29.0274 22.4737 27.3084 23.0658 26.0082 23.9947L27.1708 25.6221ZM25.957 25.583C27.5425 26.8775 28.0794 29.0607 28.2473 30.3933L30.2316 30.1432C30.0496 28.6995 29.4337 25.8397 27.2219 24.0338L25.957 25.583ZM28.2473 30.3933C28.2457 30.3803 28.2465 30.3587 28.2546 30.3346C28.2623 30.3118 28.2738 30.2949 28.2843 30.2839C28.3046 30.2624 28.3201 30.2632 28.3158 30.2632V32.2632C29.3983 32.2632 30.3847 31.3573 30.2316 30.1432L28.2473 30.3933Z" fill="#D7D7D7"/>
        <path d="M18.4105 24.8084L19.043 25.583L20.0566 24.7554L18.9918 23.9948L18.4105 24.8084ZM6.03442 30.2693L7.02422 30.4118L6.03442 30.2693ZM15.7605 30.2683L14.7684 30.1432L15.7605 30.2683ZM13.7368 24.4737C15.6013 24.4737 16.9035 24.9608 17.8292 25.6221L18.9918 23.9948C17.6916 23.0658 15.9726 22.4737 13.7368 22.4737V24.4737ZM7.02422 30.4118C7.16363 29.4435 7.5395 27.9429 8.51648 26.703C9.45611 25.5105 11.0151 24.4737 13.7368 24.4737V22.4737C10.4106 22.4737 8.26954 23.7849 6.94554 25.4652C5.65887 27.0982 5.20751 28.9954 5.04463 30.1268L7.02422 30.4118ZM6.94738 30.2632C6.94272 30.2632 6.96027 30.2622 6.9835 30.2869C6.99543 30.2996 7.00842 30.3191 7.0169 30.3451C7.02583 30.3724 7.02636 30.3969 7.02422 30.4118L5.04463 30.1268C4.86782 31.3548 5.86834 32.2632 6.94738 32.2632V30.2632ZM16.6842 30.2632H6.94738V32.2632H16.6842V30.2632ZM16.6842 30.2632C16.6799 30.2632 16.6954 30.2624 16.7157 30.2839C16.7262 30.2949 16.7377 30.3118 16.7454 30.3346C16.7535 30.3587 16.7543 30.3803 16.7527 30.3933L14.7684 30.1432C14.6153 31.3573 15.6017 32.2632 16.6842 32.2632V30.2632ZM16.7527 30.3933C16.9206 29.0607 17.4575 26.8775 19.043 25.583L17.7781 24.0338C15.5663 25.8397 14.9504 28.6995 14.7684 30.1432L16.7527 30.3933Z" fill="#D7D7D7"/>
        <path d="M22.5 24C27.5659 24 28.6836 28.8593 28.9302 31.0036C28.9933 31.5522 28.5523 32 28 32H17C16.4477 32 16.0067 31.5522 16.0698 31.0036C16.3164 28.8593 17.4341 24 22.5 24Z" stroke-width="2" stroke-linecap="round"/>
        <path d="M35 41H39.5C40.3284 41 41 40.3284 41 39.5V35" stroke-width="2" stroke-linecap="round"/>
        <path d="M35 4H39.5C40.3284 4 41 4.67157 41 5.5V10" stroke-width="2" stroke-linecap="round"/>
        <path d="M10 41H5.5C4.67157 41 4 40.3284 4 39.5V35" stroke-width="2" stroke-linecap="round"/>
        <path d="M10 4H5.5C4.67157 4 4 4.67157 4 5.5V10" stroke-width="2" stroke-linecap="round"/>
    </svg>

    <svg id='quest' viewBox="0 0 45 45" fill="none" stroke="#D7D7D7">
        <circle cx="22.5" cy="22.5" r="18.5" stroke-width="2" stroke-linecap="round"/>
        <path d="M18.6029 24.75C18.9978 25.4341 19.5659 26.0022 20.25 26.3971C20.9341 26.7921 21.7101 27 22.5 27C23.2899 27 24.0659 26.7921 24.75 26.3971C25.4341 26.0022 26.0022 25.4341 26.3971 24.75" stroke-width="2" stroke-linecap="round"/>
        <rect x="13" y="15" width="6" height="4" rx="2" fill="#D7D7D7"/>
        <rect x="26" y="15" width="6" height="4" rx="2" fill="#D7D7D7"/>
    </svg>

    <svg id='bonus' viewBox="0 0 45 45" fill="none" stroke="#D7D7D7">
        <ellipse cx="22.5" cy="11" rx="16.5" ry="7" stroke-width="2"/>
        <path d="M6 23C6 23 6 29.0252 6 33.2857C6 37.5462 13.3873 41 22.5 41C31.6127 41 39 37.5462 39 33.2857C39 31.1591 39 23 39 23" stroke-width="2" stroke-linecap="square"/>
        <path d="M6 11C6 11 6 18.5221 6 22.25C6 25.9779 13.3873 29 22.5 29C31.6127 29 39 25.9779 39 22.25C39 20.3892 39 11 39 11" stroke-width="2"/>
    </svg>
</svg>
