<svg xmlns='http://www.w3.org/2000/svg'>
    <svg id='cross' viewBox='0 0 16 16'>
        <path fill-rule='evenodd' clip-rule='evenodd' d='M4.11 2.697L2.698 4.11 6.586 8l-3.89 3.89 1.415 1.413L8 9.414l3.89 3.89 1.413-1.415L9.414 8l3.89-3.89-1.415-1.413L8 6.586l-3.89-3.89z' fill='hsl(var(--Theme__hue), 0%, 40%)'>
        </path>
    </svg>
    <svg id='bonus' viewBox="0 0 33 34" fill="none">
        <path d="M16.5 31.5L2.1797 13.5996C1.84718 13.184 1.68092 12.9762 1.63625 12.7257C1.59159 12.4752 1.67575 12.2228 1.84407 11.7178L4.3383 4.23509C4.77832 2.91505 4.99832 2.25503 5.5221 1.87752C6.04587 1.5 6.74159 1.5 8.13304 1.5H24.867C26.2584 1.5 26.9541 1.5 27.4779 1.87752C28.0017 2.25503 28.2217 2.91505 28.6617 4.23509L31.1559 11.7178C31.3243 12.2228 31.4084 12.4752 31.3637 12.7257C31.3191 12.9762 31.1528 13.184 30.8203 13.5996L16.5 31.5ZM16.5 31.5L23.0625 10.875M16.5 31.5L9.9375 10.875M30.5625 12.75L23.0625 10.875M23.0625 10.875L20 2.5M23.0625 10.875H9.9375M13 2.5L9.9375 10.875M9.9375 10.875L2.4375 12.75" stroke="#4281FF" stroke-width="2" stroke-linecap="round"/>
    </svg>
</svg>
